<svg version="1.2" xmlns="http://www.w3.org/2000/svg" viewBox="0 0 445 445" width="445" height="445">
	<title>cpu-svgrepo-com-svg</title>
	<defs>
		<linearGradient id="g1" x1="222.2" y1="324.7" x2="222.2" y2="119.8" gradientUnits="userSpaceOnUse">
			<stop offset="0" stop-color="#55bde5"/>
			<stop offset="1" stop-color="#55bde5"/>
		</linearGradient>
		<linearGradient id="g2" x1="222.2" y1="266.1" x2="222.2" y2="178.4" gradientUnits="userSpaceOnUse">
			<stop offset="0" stop-color="#55bde5"/>
			<stop offset="1" stop-color="#55bde5"/>
		</linearGradient>
	</defs>
	<style>
		.s0 { fill: url(#g1) } 
		.s1 { fill: url(#g2) } 
		.s2 { fill: #000000 } 
	</style>
	<g id="Layer">
		<path id="Layer" fill-rule="evenodd" class="s0" d="m324.7 127.3v189.9c0 4.1-3.4 7.5-7.5 7.5h-189.9c-4.1 0-7.5-3.4-7.5-7.5v-189.9c0-4.1 3.4-7.5 7.5-7.5h189.9c4.1 0 7.5 3.4 7.5 7.5zm-15 7.5h-174.9v174.9h174.9z"/>
		<path id="Layer" fill-rule="evenodd" class="s1" d="m178.4 258.6v-72.7c0-4.2 3.3-7.5 7.5-7.5h72.7c4.1 0 7.5 3.3 7.5 7.5v72.7c0 4.1-3.4 7.5-7.5 7.5h-72.7c-4.2 0-7.5-3.4-7.5-7.5zm15-7.5h57.7v-57.7h-57.7z"/>
		<path id="Layer" class="s2" d="m298.2 9.2c-1.6-6.8 6.6-11.9 12-7.6 5.4 4.3 2.3 13.4-4.7 13.4-3.4 0-6.5-2.5-7.3-5.8z"/>
		<path id="Layer" class="s2" d="m145.9 439.7c-1.1 2.9-4.1 4.9-7.3 4.8-3.1-0.2-5.8-2.3-6.8-5.2-1.1-3.2 0.3-6.9 3.2-8.7 2.5-1.5 5.6-1.5 8.1 0.1 2.9 1.9 4.1 5.7 2.8 9z"/>
		<path id="Layer" fill-rule="evenodd" class="s2" d="m354.7 188.1v26.6h82.3c4.1 0 7.5 3.4 7.5 7.5 0 4.2-3.4 7.5-7.5 7.5h-82.3v26.7h82.3c4.1 0 7.5 3.3 7.5 7.5 0 4.1-3.4 7.5-7.5 7.5h-82.3v26.6h82.3c4.1 0 7.5 3.4 7.5 7.5 0 4.2-3.4 7.5-7.5 7.5h-82.3v5.4c0 20-16.3 36.3-36.3 36.3h-5.4v82.3c0 4.1-3.3 7.5-7.5 7.5-4.1 0-7.5-3.4-7.5-7.5v-82.3h-26.6v82.3c0 4.1-3.4 7.5-7.5 7.5-4.2 0-7.5-3.4-7.5-7.5v-82.3h-26.7v82.3c0 4.1-3.3 7.5-7.5 7.5-4.1 0-7.5-3.4-7.5-7.5v-82.3h-26.6v82.3c0 4.1-3.4 7.5-7.5 7.5-4.2 0-7.5-3.4-7.5-7.5v-82.3h-26.7v58.2c0 4.1-3.3 7.5-7.5 7.5-4.1 0-7.5-3.4-7.5-7.5v-58.2h-5.3c-20 0-36.3-16.3-36.3-36.3v-5.4h-82.3c-4.1 0-7.5-3.3-7.5-7.5 0-4.1 3.4-7.5 7.5-7.5h82.3v-26.6h-82.3c-4.1 0-7.5-3.4-7.5-7.5 0-4.2 3.4-7.5 7.5-7.5h82.3v-26.7h-82.3c-4.1 0-7.5-3.3-7.5-7.5 0-4.1 3.4-7.5 7.5-7.5h82.3v-26.6h-82.3c-4.1 0-7.5-3.4-7.5-7.5 0-4.2 3.4-7.5 7.5-7.5h82.3v-26.7h-82.3c-4.1 0-7.5-3.3-7.5-7.5 0-4.1 3.4-7.5 7.5-7.5h82.3v-5.4c0-19.9 16.3-36.2 36.2-36.2h5.4v-82.3c0-4.1 3.4-7.5 7.5-7.5 4.2 0 7.5 3.4 7.5 7.5v82.3h26.7v-82.3c0-4.1 3.3-7.5 7.5-7.5 4.1 0 7.5 3.4 7.5 7.5v82.3h26.6v-82.3c0-4.1 3.4-7.5 7.5-7.5 4.2 0 7.5 3.4 7.5 7.5v82.3h26.7v-82.3c0-4.1 3.3-7.5 7.5-7.5 4.1 0 7.5 3.4 7.5 7.5v82.3h26.6v-58.2c0-4.1 3.4-7.5 7.5-7.5 4.2 0 7.5 3.4 7.5 7.5v58.2h5.4c20 0 36.3 16.3 36.3 36.2v5.4h82.3c4.1 0 7.5 3.4 7.5 7.5 0 4.2-3.4 7.5-7.5 7.5h-82.3v26.7h82.3c4.1 0 7.5 3.3 7.5 7.5 0 4.1-3.4 7.5-7.5 7.5zm-15-62c0-11.8-9.6-21.3-21.3-21.3h-192.4c-11.7 0-21.2 9.5-21.2 21.3v192.3c0 11.7 9.5 21.3 21.2 21.3h192.4c11.7 0 21.3-9.6 21.3-21.3z"/>
	</g>
	<g id="Layer">
	</g>
	<g id="Layer">
	</g>
	<g id="Layer">
	</g>
	<g id="Layer">
	</g>
	<g id="Layer">
	</g>
	<g id="Layer">
	</g>
	<g id="Layer">
	</g>
	<g id="Layer">
	</g>
	<g id="Layer">
	</g>
	<g id="Layer">
	</g>
	<g id="Layer">
	</g>
	<g id="Layer">
	</g>
	<g id="Layer">
	</g>
	<g id="Layer">
	</g>
	<g id="Layer">
	</g>
</svg>